<svg xmlns="http://www.w3.org/2000/svg" width="812" height="1045.281"><g fill="#e8eddf"><path d="M403.337 636.592c-.018.021.009.032 0 0m69.377 191.977s-20.614 129.057-.964 129.2c20.74.16.964-129.2.964-129.2m-.472 126.061c-12.266 0 0-103.845 0-103.845-5.451 85.158 0 103.845 0 103.845m-78.573-127.723s-20.616 129.059-.965 129.206c20.739.154.965-129.206.965-129.206m-.474 126.123c-12.264 0 0-103.845 0-103.845-5.45 85.162 0 103.845 0 103.845m39.986-36.954s-20.614 129.059-.964 129.206c20.737.154.964-129.206.964-129.206m-.472 125.806c-12.266 0 0-103.845 0-103.845-5.455 85.158 0 103.845 0 103.845M33.458 503.954c-.113.344-.057.171 0 0m30.259 151.711c-.244-.524-.122-.263 0 0"/><path d="M63.717 655.666c.244.524.122.261 0 0m39.861-136.721h.414l-.237-.113zm-70.121-14.991c.115-.344.058-.171 0 0m222.992-363.538-.906-7.255zM186.081 505.66l-.655-1.755-40.786 14.278.895 3.766c14.24-3.534 27.389-9.924 40.546-16.289m544.168-25.664-10.87-25.113c-8.263-18.973-8.118-18.89 1.394-37.082 2.3-4.4 4.946-6.082 9.815-5.453l43.063 5.148 38.35 4.381-80.925-26.6 16.772-48.38c1.348-3.935 4.439-5.175 8.034-5.986q16.442-3.706 32.863-7.507l21.934-5.162c-19.809-3.114-39.2 2.017-59.066.122l-1.184-24 7.356-4.341-8.283.577-13.237-33.144 52.755-44.275-.2-.293-60.065 35.151c-11.51-8.312-21.405-16.677-32.438-23.082-10.932-6.345-23.012-10.713-35.693-16.448l35.923-84.572-.159-.092q-12.537 16.85-25.07 33.7l-25.412 33.059-2.966 3.758c-6.985-23.2-16.752-42.449-34.586-56.527 3.08-5.65 4.644-11.331 7.326-16.251l-11.294 12.333c-14.049-5.522-13.437-5.777-8.2-21.413 6.565-19.586 9.156-34 16.091-53.462 1.217-3.416 4.309-12.731 5.441-16.176-4.677 9.011-9.618 17.9-13.959 27.069l-25.168 48.8c-9.231-3-17.2-8.207-26.712-8.205-2.1 6.049 2.3 6.067 5.38 7.27 10.43 4.07 21.22 7.432 31.179 12.446a79.4 79.4 0 0 1 12.582 8.133c11.464 10.986 22.984 29.2 27.837 45.243-8.165-12.285-23.177-36.473-30.339-42.27a104.1 104.1 0 0 0-48.948-21.617l-1.116 8.993c16.283 4.157 29.511 13.275 43.076 21.847.07.046.13.1.2.144l-21.882 29.064c-11.325-6.127-22.328-13.038-33.81-19.664l-10.207 14.1c11.642 10.9 24.991 18.554 38.475 25.889l-14.992 14.4-23.128 20.7-27.74 24.829 13.04-5.974.03-.027c.874-.4 1.73-.826 2.566-1.289l69.048-38.513c5.342-3.033 9.92-3.205 15.883-.513a86.2 86.2 0 0 0 19.255 6.411c6.617 1.258 10.05 2.249 10.677 7.884.48 4.3-1.376 6.464-4.78 8.408l-52.616 30.36c-6 3.471-18.267 9.857-17.986 10.454 12.447-3.89 25.837-5.7 38.156-9.96 12.569-4.345 24.913-9.338 38.011-14.3.341 3.567.7 5.768.739 7.973.376 21.66 3.251 43 9.726 63.658 4.986 15.914 11.275 31.418 16.584 47.237a25 25 0 0 1 .922 3.943l-56.1 21.566a15.66 15.66 0 0 0 8.408 1.48c14.127-.718 28.506-.111 42.3-2.651 13.977-2.575 21.072 2.631 27.378 14.21 8.979 16.491 9.87 16.241 1.374 32.9-4.3 8.433-13.458 25.084-18.353 33.947l-68.779-53.807c.469 2.129 5.5 7.7 6.692 9.141 17.036 20.533 29.707 37.389 47.195 57.53 4.621 5.322 5.832 9.682 3.57 16.292-6.771 19.8-11.8 40.051-13.916 60.962-.528 5.218-1.923 10.349-3.195 16.948-23.069-11.863-40.032-17.824-61.669-28.945 12.844 9.862 37.7 27.84 51.489 37.278 9.08 6.211 10.082 6.313 6.423 17.111-2.9 8.556-4.012 9.807-6.964 18.979-.741 2.3-3.644 13.051-5.34 16.4l-22.354-17.9c-7.2-6.082-14.1-12.514-21.132-18.794 1.37 4.086 4.041 6.96 6.426 10.109 9.184 12.123 18.566 24.117 28.317 35.79 3.483 4.171 3.989 7.751 1.524 12.353-3.489 6.515-6.211 13.475-10.064 19.751-4.288 6.982-9.479 13.411-15.224 21.4l-9.089-13.077-8.135-11.966-8.391-12.95c-2.384-3.7-4.123-7.916-7.967-10.5a26 26 0 0 0 2.184 8.575q8.977 21.317 18.055 42.589c3.279 7.71 2.979 8.333-2.779 14.263-3.926 4.044-8.408 5.287-13.881 5.139-5.365-.143-11.722-2.556-14.947 4.768-.328.748-2.3 1.1-3.508 1.083-8.666-.1-17.494.6-25.942-.854-6.4-1.1-12.6-4.535-18.362-7.851-4.41-2.537-6.666-8.811-13.529-7.106-.913.228-2.9-1.587-3.531-2.877-3.586-7.327-16.661-10.888-24.4-12.22-3.237 5.175-7.826 14.116-3.6 17.966 3.746 5.714 13.858 1.7 13.722 10.051l-.564 18.638-.29.4c-8.393 3.328-11.537 9.5-10.279 20.436l9.027 2.253v57.086l10.024-57.309 49.913-6.194c11.572 28.839 19.1 58.471 31.887 86.107l.8-.26-17.3-87.4 32.487-15.375c2.518-1.128 5.612-1.031 8.457-1.351 11.494-1.3 23.2-1.632 34.422-4.12 7.6-1.684 11.774.011 16.022 6.075 11.253 16.062 22.981 31.792 34.613 47.587 2.662 3.613 5.695 6.954 8.558 10.419-11.968-23.254-22.23-47.789-33.676-70.032 12.708-8.872 24.588-16.483 35.7-25.087 15.865-12.284 29.853-26.486 39.422-44.426 2.688-5.042 6.014-5.727 11.068-3.619 6.217 2.59 12.7 4.554 19.087 6.713l37.133 12.429.234-.516-56.418-32.926 19.8-46.839c19.538 5.061 38.24 11.566 57.649 15.081l-52.992-26.7 2.7-10.037c5.044-18.991 6.143-37.948.315-57.058-4.016-13.163-7.484-26.495-11.442-40.624 22.659-9.525 47.633-11.2 70.477-20.083-26.066-1.89-51.835 1.238-78.192 3.856m-147.8-349.22c-1.834-.759-2.193-1.994-1.755-2.992.47-1.071 3.027-4.858 3.553-5.9l13.163-26.1 5.137-10.787c-2.799 9.653-14.8 37.585-20.096 45.78zm-47.978 113.786-4.9 2.605c-.053.021-.1.05-.156.072l32.965-30.934 9.541-6.172c3.425-2.2 6.889-4.277 13.832-2.987zm88.035-34.21a227 227 0 0 1-37.357-13.015l13.927-31.075c11.94 10.3 18.809 23.986 23.384 39.3.334 1.113.046 2.417.046 4.79M519.591 756.939c-14.483 3.853-29.193 5.331-46.124 6.377l3.7-19.249 42.435 12zm211.046-496.621 1.455 1.437-4.595 5-1.962-2.074q2.549-2.184 5.102-4.363m-2.28 45.46c-3.387.964-6.915 2.168-10.531 2.96l-17.8 3.723.412-.1-43.388 6.4c-8.842-26.373-5.172-53.126-7.9-79.413 32.934-.214 75.308 35.371 79.207 66.43m1.118 6.124a41.5 41.5 0 0 1 .654 23.505c-6.507 26.219-16.728 51.144-28.143 75.582-.391.838-.982 1.582-2.188 3.494-18.2-24.191-30.834-48.965-38.012-77.349zm-70.933 12.124-.8-2.787 38.907-6.7c-.3.564-9.135 2.559-11.581 4.042-10.416 2.338-18.862 3.589-26.527 5.444zm-10.15-120.007c.808-1.46 1.7-2.872 2.561-4.3l8.646-12.45 13.1-19.043c.443.134-1 3.117-1.753 5.606a43 43 0 0 1-2.112 5.264l-14.214 24.93a12.94 12.94 0 0 1-6.982 5.582c.218-1.884-.093-4.057.754-5.589m-64.515 69.7c2.213-1.448 4.381-2.967 6.643-4.334l35.447-21.223c3.054-1.773 6.655-2.605 10-3.87l.947 2.162c-16.552 11.022-34.008 20.417-53.037 27.268zm73.742 119.886c-.429 1.862-4.422 3.647-7.047 4.126-9.367 1.71-17.923 9.176-28.218 4.554l35.652-12.912a18.4 18.4 0 0 1-.387 4.234zm27.287 24.757c-21.924-33.608-39.135-69.318-46.43-109.04-2.237-12.18-1.946-24.84-2.558-37.292-.1-2.033 1.124-4.129 2.92-6.16l9.37 53.922c3.593 17.922 8.188 35.619 16.633 52.049l25.084 49.189-2.688 2.236a39 39 0 0 0-2.331-4.904m-13.574 61.383c9.831-18.4 20.089-36.627 28.735-55.582 9.712-21.289 17.875-43.288 26.658-65 9.781-24.18 10.529-48.713 2.74-73.563a42 42 0 0 1-.728-5.015c7 6.9 8.517 14.474 10.044 21.883 4.062 19.716 2.132 38.869-5.215 57.694a916 916 0 0 1-47.254 102.242c-6.924 12.823-13.095 26.054-19.6 39.1-1.317-7.842.92-14.828 4.622-21.757zm-67.3-37.168.909.822s54.445 39.426 54.578 49.637c-19.918-16.031-37.347-33.71-55.483-50.456zm36.7 143.257c2.228-13.6 4.916-27.133 7.643-40.648 1.014-5.026 3.091-9.862 3.842-14.91 1.649-11.055 6.724-20.182 14.286-28.118a71 71 0 0 1-1.875 7.75c-2.306 6.609-5.623 12.964-7.138 19.733-4.555 20.351-8.437 40.854-12.6 61.294-.438 2.15-.982 4.279-1.477 6.417l-1.918.06c-.298-3.866-1.372-7.857-.763-11.576zm-74.426 163.517c-1.083.863-2.762.976-4.166 1.437l-.817-1.9 20.675-15.508a18.9 18.9 0 0 0 4.818-4.584c16.525-26.77 31.751-54.183 40.679-84.605l6.009-21.3c.887-2.853 2.556-5.461 3.87-8.181l2.168.5c0 2.573.516 5.276-.09 7.7-2.645 10.568-5.287 21.156-8.539 31.547a218.2 218.2 0 0 1-33.161 64.793c-.951 1.289-2.336 2.352-2.967 3.766-5.748 12.846-18.348 18.264-28.479 26.335m46.355-14.4a99 99 0 0 1-10.28 2.546c-1.777.173-3.566.19-5.346.05 9.03-14.182 18.54-27.271 26.041-41.424 7.468-14.092 12.918-29.253 19.562-44.661l36.288 21.227.134-.182c-8.619-7.91-16.586-16.583-25.47-24.183-6.466-5.531-7.367-11.068-5.264-19.418 3.834-15.214 5.693-30.93 8.306-46.448l2.856-18.844c15.356.111 29.291 5.452 44.319 5.514l-41.411-16.35c5.05-32.938 19.159-61.983 36.8-89.781 6.557 6.869 24.721 51.558 25.57 64.043l-28.1-18.461-1.419 1.536c2.275 2.4 4.462 4.89 6.843 7.177l23.134 21.877c5.714 5.12 7.976 11.252 8.052 18.786.11 10.992-.093 21.9-3.845 32.377-9.864 27.559-19.872 55.068-35.554 80.038-19.498 31.038-45.915 53.425-81.22 64.583zm128.867-193.723c2.79 15.4 7.133 30.962 1.455 46.471-7.273 19.866-14.316 39.911-23.28 59.025-4.925 10.5-11.691 20.327-17.493 30.553a140.7 140.7 0 0 1-31.757 38.411c-7.906 6.65-16.876 11.285-25.944 15.839l-1.234-1.743 14.126-11.4c19.612-15.937 35.079-35.091 48.639-56.56 14.286-22.619 21.784-47.648 31.212-72.073 6.411-16.607 4.308-33.416.6-50.194-.386-1.746-.873-3.468.067-5.713 1.236 2.455 3.14 4.79 3.609 7.384M361.823 703.599l6.4-4.546h2.456l5.024-2.631 6.221-7.9s29.122 7.075 34.815 11.905c0 0 2.321 12.661 2.083 17.207 0 0-16.911-10.319-27.2-11.754a206.6 206.6 0 0 0-29.799-2.281"/><path d="M404.7 764.437c-17.891-5.158-34.356-14.376-51.483-21.683a56 56 0 0 1-6.756-4.038l27.5 9.868c8.526 3.24 46.9 19.62 46.9 14.732-3.528-2.287-27.6-11.1-31.744-12.988-17.865-8.126-27.865-12.308-42.91-18.736a213 213 0 0 1-28.712-15.074c-6.02-3.689-11.275-8.336-15.99-11.626-1.577-1.1-2.68-2.956-4-4.471l.8-1.816c8.636.987 21.94.78 30.8 1.794-2.587-6.922-2.481-9.718-3.328-14.41-5.751-.727-15.243.372-20.952-.228s-11.769.4-16.975-2.514c.047-.379.023-.189 0 0 10.267.556 20.489 2.692 30.264-.646l-.02-.034c3.366-.054 7.767.131 7.767.131l1.2-5.664h-12.173a29.5 29.5 0 0 1-2.071-4.286l-14.84-41.795c-1.058-2.992-2.732-9.153-3.262-8.943 2.527 18.354 3.463 37.339 5.965 55.5-18.685 5.4-27.213 3.25-37.246-10.424-12.165-16.581-23.662-33.656-35.41-50.541-.324-.466-.223-1.225-.463-2.749 16.355-15.6 33.054-31.629 47.386-50l-63 35.325q-28.418-29.559-56.7-59.244c-2.333-2.45-4.294-5.255-7.241-8.9 33.675-17.421 67.885-31.07 98.755-51.17-8.378 2.058-16.519 4.682-24.583 7.518l-76.33 26.92c-8.558 2.969-13.076-.7-11.928-9.613 1.313-10.19 2.9-20.362 4.812-30.456 3.77-19.875 8.735-39.571 11.413-59.582 1.692-12.65 8.544-17.908 20.336-27.294 10.731-8.541 12.82-11.85 23.707-21.405 2.4-2.107 7.657-8.135 14.965-15.633-14.321 8.733-23.261 15.633-40.967 23.609l-14.237 6.878a23.2 23.2 0 0 1-1.559-7.721c-.906-11-2.462-15.285-4.335-25.476-.6-3.276-2.766-28.529-2.766-28.529l4.786-7.435c4.719-7.333 4.537-7.4 13.08-5.407l55.365 12.724c5.32 1.194 10.731 2.039 16.132 2.8 5.276.747 10.594 1.19 15.894 1.765-27.827-11.3-56.037-20.933-84.007-34.439 24.824-31.461 50.983-60.374 77.795-89.831l42.552 47.071 1.177-.913-36.249-54.856c14.176-13.687 33.123-30.882 51.8-38.68-2.843-4.972-9.28-9.282-12.124-13.878-.776-1.254-5.114-3.276-6.221-3.19a13.09 13.09 0 0 1-11.333-4.6L229.29 80.826q-3.01-3.333-6.023-6.664c8.825 15.563 15.883 32.391 24.786 47.908l8.393 18.331-.906-7.255-4.529-8.688-5.414-11.377c9.841 7.3 18.038 19.611 19.127 30.11l-9.184-10.045.906 7.255c-23.166 4.833-41 19.319-60.648 32.133l-44.464-51.768 35 59.04-6.522 6.131c-8.639 8.576-17.6 16.861-25.722 25.907-7.759 6.012-21.054 27.876-21.054 27.876l1.77 1.022-62.65-36.125c.8 3.228 7.519 8.24 9.515 10.013q21.255 18.884 42.63 37.635c3.181 2.792 6.183 5.12 4.7 10.422-4.366 15.625-4.432 31.725-4.554 47.812a31.4 31.4 0 0 1-2.162 11.4c-4.018 10.067-8.733 19.854-12.742 29.923-1.709 4.3-4.18 5.905-8.683 5.713-10.268-.44-20.553-.513-30.829-.8l-70.035-2.063 100.617 20.607-7.139 51.99c-5.038.651-9.776 1.057-14.433 1.921-4.3.8-8.944.638-12.679 4.01l27.756 2.75c.557 3.266 1.286 5.746 1.356 8.245.643 22.737 4.922 44.606 14.681 65.321a9.9 9.9 0 0 1 .8 3.4h-3.549l-73.954-8.973 70.535 14.991c7.008 1.61 7.008 1.61 10.189 4.893-16.361-2.651-27.99-5.482-46.808-10.911-14.251-4.113-20.9-4.932-33.915-8.973l74.727 28.909c1.063 15.5.637 30.485 3.486 44.825 2.828 14.24 8.953 27.825 14.127 43.163l-62.081 34.815c23.345-8.791 47.477-15.892 70.558-24.585 5.391 7.072 9.613 15.045 16.056 22.642 3.587 3.144 9.054 6.77 21.248 17.349-13.932 23.392-33.72 42.745-48.731 65.673a94.6 94.6 0 0 0 13.987-10.3l45.837-41.381c4.412-4.115 8.005-4.482 13.652-2.5 9.944 3.494 20.338 5.769 30.627 8.2 8.329 1.969 16.78 3.415 25.568 5.171-1.84 29.522-10.7 56.958-13.167 85.471a281 281 0 0 0 9.711-26.726l8.338-26.691c2.982-8.863 3.975-18.429 8.627-27.55 2.547 2.185 4.343 3.508 5.884 5.082a134.6 134.6 0 0 0 35.04 25.608c15.6 8.023 31.315 15.851 46.3 24.96 3.8 2.311 3.625 3.506 2.1 9.5l-15.981 61.563c-.564 2.176-.866 4.418-1.29 6.629 10.622-23.229 22.65-46.141 33.255-69.332 14 3.815 37.221 13.463 50.646 15.892.245-9.942-1.995-11.487-17.277-15.893M153.9 383.924c5.95-3.195 29.856-16.867 31.994-18.021-1.878 1.8-14.313 9.75-19.516 13.406-6.452 4.535-7.687 6-14.636 11.378-.442-5.877-.624-3.927 2.158-6.763m36.919-80.224c-8.116 1.014-18.136-2.859-23.019-8.9 7.362.407 13.924 2.943 23.018 8.9zm77.225 265.268c.07-.035.142-.082.212-.119l-34.008 25.626s-12.269 10.529-13.692 9.807a6.02 6.02 0 0 1-5.562-1.826zm-82.619-65.063.655 1.755c-13.157 6.365-26.306 12.756-40.546 16.289l-.895-3.766zm-43.379-74.276a155 155 0 0 1-2.419 18.049q-4.769 23.078-10.129 46.033a388 388 0 0 1-8.837 31.788c0-3.766-.307-7.562.049-11.294 2.669-27.927 11.183-54.592 17.74-81.683.509-2.788.753-5.618.73-8.452.113-2.459.023-4.926.023-7.39 0-3.529 3.03-3.828 2.915-.095.001 4.35.3 8.725-.071 13.044zm.528-48.872-3.668-26.135c6.456 7.541 7.902 16.988 3.669 26.135zm61.215-209.79c14.408-9.207 29.282-17.494 45.411-23.131q.607 1.12 1.212 2.242l-24.229 13.525c-8.109 4.713-16.065 9.688-24.087 14.547l-2.057-2.523c1.236-1.578 2.161-3.643 3.751-4.66zm45.539-6.927c-2.914 4.28-4.45 7.22-9.253 6.2 1.125-4.815 4.475-4.88 9.255-6.2zm-19.8 21.776-10.7 11.517-8.911-9.747 12.8-9.288c2.388-1.681 4.635-1.668 6.725.751 2.005 2.321 2.147 4.517.089 6.769zm-14.9 12.455c-7.573-2.135-17.145-13.878-19.922-24.113l19.921 24.113zm-6.176 10.575-60.4 70.486c2.564-36.56 22.824-61.8 50.539-82.814a35 35 0 0 1 3.706 3.569c1.935 2.523 3.671 5.194 6.154 8.76zM145.093 228.4c4.416-6.058 9.457-13.376 13.251-17.181 7.9-7.92 16.242-15.393 24.528-22.911 1.185-1.077 3.108-1.341 6-2.514-2.312 7.707-8.344 10.181-12.2 14.459-4.073 4.52-8.7 8.544-12.727 13.1s-7.741 9.41-11.336 14.321c-3.5 4.781-6.672 9.8-9.989 14.715-.744-.18-3.854-.826-4.6-1.006zm-33.865 3.08c11.038 4.592 19.217 9.6 26.173 16.509-9.289-1.807-16.371-6.371-26.174-16.508zm19.2 63.877c-.577-10.132-2.591-20.361 2.159-30.687 3.527 5.017 2.773 16.338-2.158 30.688zm-12.7 47.822a300.6 300.6 0 0 1 39.083-66.23c26.319-33.755 54.146-66.128 85.513-95.339a5.47 5.47 0 0 1 3.943-1.632 24 24 0 0 1-1.941 3.213q-19.134 22.927-38.346 45.781c-8.5 10.064-16.871 20.252-25.773 29.951-26.987 29.4-48.068 62.569-64.191 100.721-2.981-7.187-.307-11.786 1.71-16.464zm14.552 34.483c-.147 11.154-.564 22.338-1.611 33.44-1.18 12.507-1.536 12.473-14.8 12.9-2.941-12.988 4.668-50.518 14.854-64.223.555 5.962 1.635 11.932 1.555 17.884zm-73.244-17.976c15.941 2.217 32.293-1.246 48.041 3.67-16.282 2.479-32.214.134-48.041-3.67m49.47 18.321c.1 14.842-3.9 29.073-5.788 44.878-5.47-9.967-2.132-36.567 5.788-44.878m-10.687 52.562 34.679-4.871c-6.75 5.901-23.511 8.304-34.679 4.871m18.171 7.087h10.888l-7.168 28.867c-3.75-7.243-4.964-18.378-3.72-28.866zm4.522 96.059c2.679 23.645 2.625 45.834 11.355 66.459-12.83-11.641-16.708-48.034-11.355-66.456zm10.308 8.761 46.155 48.742-17.82 35.72c-22.241-20.837-34.346-56.085-28.335-84.462m15.7 172.166-1.565-1.411 32.182-44.253c2.446-3.306 5.585-6.283 11.187-3.019l-41.809 48.683zm16.824-81.176 23.071-29.648c14.158 7.22 43.928 47.836 54.586 68.667-31.501-2.126-57.271-13.367-77.662-39.019zm99.3 45.031c-4.271-5.145-8.793-10.1-12.771-15.462-28.219-38.034-59.952-72.984-92.815-107-7.982-8.263-14.425-18.02-21.471-27.172a6.6 6.6 0 0 1-1.049-5.519q9.744 10.306 19.486 20.613l20.5 21.744c32.272 33.32 61.878 68.808 87.634 107.437.846 1.271 1.507 2.665 2.254 4z"/><use href="#a"/><path d="M407.115 231.321s-.686-.038-3.179 5.247c-3.395 7.194 0 14.935-4.943 22.2l-15.184 22.2c-2.824 4.44-8.123 10.9-20.836 10.494 0 0 9.182 6.055 24.719-10.091s18.776-18.971 22.454-26.64-2.326-9.688 5.8-19.779c-.004.006.703-2.823-8.831-3.631m76.465 70.521-1.345-2.921-.9-3.083-.822-6.434a50 50 0 0 0-3.35-12.646 62 62 0 0 0-6.6-11.3c-2.524-3.488-4.061-7.53-5.943-11.456-1.814-3.943-3.651-7.886-5.675-11.754-2.065-3.842-4.14-7.715-7.235-11.059l-.037-.041-.25-.278-.418.032c-4 .3-8.023.533-12.033.654-2 .061-4.01.095-6 .047a42 42 0 0 1-2.961-.148 13 13 0 0 1-1.422-.183c-.25-.052-.4-.06-.736-.148a3.6 3.6 0 0 0-1.38-.105 1.25 1.25 0 0 0-.243 1.129l.067.234.14.464.3.916.654 1.8q.678 1.789 1.489 3.521a52.5 52.5 0 0 0 3.685 6.693 43.4 43.4 0 0 0 10.3 11.232c8.419 5.655 17.522 10.09 24.8 16.96a19.3 19.3 0 0 1 4.326 5.919c.892 2.231 1.295 4.815 2.008 7.2a63.8 63.8 0 0 0 5.3 14.142 25.4 25.4 0 0 0 4.5 6.085c1.811 1.831 4.175 2.871 6.313 4.151a63 63 0 0 0 6.678 3.511 24 24 0 0 0 7.357 1.562h.041l.006-.038c-8.217-2.411-16.259-7.132-20.614-14.658m18.174 13.944q.995.336 2 .629a35 35 0 0 1-2.001-.629zm-130.836-66.57c5.5-2.871 15.075-4.784 18.664-4.784 0 0 2.512-15.195 8.014-19.116-3.978.07-15.671.163-23.568 5.667-8.558 5.965-17.945 15.363-19.86 22.3s-2.7 11.5-2.7 11.5a64 64 0 0 1-3.868 16.535c-2.336 6.14-3 11.445-14.744 17.377-6.69 3.379-10.273 5.076-15.537 3.879a18.42 18.42 0 0 0 14.116 0c10.006-3.941 12.2-4.784 17.227-11.006s7.658-16.749 9.812-25.124 6.942-14.359 12.444-17.228m-12.685-20.457c8.614-1.437 19.863-9.366 25.841-9.572a10.8 10.8 0 0 0 5.2-1.246 53.9 53.9 0 0 0-18.954-4.736c-9.682-.713-13.16 4.068-13.16 4.068s-2.752 6.342-15.673 4.845-22.262-6.171-34.934-2.692c-9.81 2.692-12.682 9.332-12.682 9.332s5.982-5.743 11.485-6.939 16.749.957 23.21 4.306 21.057 4.07 29.667 2.634m160.558-23.09c-5.5 2.393-11.485 10.29-15.553 11.247s-12.162-3.554-13.878 0c-1.675 3.47-8.613 13.585-8.613 13.585 9.57-.053 19.38-5.928 23.926-7.125s11.485-10.768 14.6-14.834 13.4-6.221 13.4-6.221c-.961-.719-8.378.956-13.882 3.348m-20.343 53.234v-.006c-.015-.021-.547-.788-1.509-1.9a32 32 0 0 0-3.894-4.053 26 26 0 0 0-3.276-2.391l-3.436-2.02a20.6 20.6 0 0 1-5.159-5.838 39.2 39.2 0 0 1-3.457-7.057l-.475-1.217-.921.916-4.074 4.355c.232.961.4.779.47.982l.319.411.646.812 1.321 1.6 2.775 3.083a24.8 24.8 0 0 0 6.534 5.2 4.8 4.8 0 0 0 2.124.548 13 13 0 0 1 2.005 0 10.4 10.4 0 0 1 3.7 1.423 30.7 30.7 0 0 1 6.311 5.157c-.489-.562-1.034-1.075-1.553-1.611l1.553 1.611zM281.576 433.867v47.237s.509 22.526-14.477 30.945c0 0 33.7-15.871 33.7-31.145V386.63s-.508-22.526 14.475-30.945c0 0-33.7 15.871-33.7 31.145v22.173s-10.288.715-19.38 13c-8.807 11.9-9.253 17.63-10.21 31.667.003-.002 4.47-21.418 29.592-19.803m69.985 64.398c-6.165-1.762-17.2-3.17-30.733.157-14.6 3.589-27.158 9.092-34.218 13.877-11.033 7.481-21.515 17.731-27.636 24.527 0 0 11.525-9.213 17.966-12.073a73.2 73.2 0 0 1 17.646-5.514c6.437-1.032 15.74.093 19.539.62a30.56 30.56 0 0 1 12.565 4.765c4.546 3.111 8.613 8.135 10.528 8.375s5.264.24 6.7-.957 15.928-15.424 22.389-21.957l-.62-.481c-2.173-1.694-8.839-9.827-14.126-11.339m-78.838-148.761c9.9-.281 21.431 2.4 28.45 2.4a32.1 32.1 0 0 0 21.958-7.822c7.657-6.38 27.795-22.1 31.823-25.443 5.36-4.439 16.79-13.438 23.369-14.011 0 0-5.328-.483-15.792 6.435-6.314 4.174-16.375 11.722-22.332 15.314a33.45 33.45 0 0 1-23.448 4.146c-10.369-2.072-19.9-5.024-24.685-5.024s-8.973-.878-15.673 4.546-19.28 16.712-22.013 19.937c-2.285 2.7-11.965 12.124-6.221 20.578a8.45 8.45 0 0 1 0-7.338c2.393-4.826 6.521-7.536 10.2-9.419 3.308-1.697 8.741-4.141 14.364-4.299"/><path d="M380.024 423.807c-10.63-.012-21.227-.006-26.02 0q.884-.559 1.828-1.164c12.741-8.167 26.745-22.369 30.388-29.91 3.584-7.417 7.179-21.775 6.939-33.26s-3.35-18.9-9.332-27.037-10.528-6.461-15.314-5.743c-3.63.545-20.323 11.224-28.172 16.351l-4.1 2.7c-9.834 6.295-22.717 16.427-22.717 26.324v98.785s.509 23.606-14.477 32.426c0 0 33.7-16.63 33.7-32.634V371.86s-.331-15.711 7.684-26.287c3.969-3.6 12.3-8.833 16.123-10.267s8.19-.7 11.725 5.5c2.669 4.685 4.784 14.356 5.024 22.013s.568 21.674-1.2 29.79a49.8 49.8 0 0 1-11.725 23.568c-7.335 8.387-27.636 18.664-27.636 18.664a116 116 0 0 0 21.1-10.94c4.322.278 12.711 1.368 12.521 5.633-.159 3.52-.061 80.545-.061 80.545s14.516-18.158 26.867-17.68v-51.364s1.227-17.211-13.145-17.228m95.312 9.392v47.237s.509 22.528-14.477 30.947c0 0 33.7-15.873 33.7-31.147v-94.273s-.509-22.528 14.475-30.946c0 0-33.7 15.871-33.7 31.145v22.173s-10.288.715-19.38 13c-8.807 11.9-9.253 17.629-10.21 31.666.002-.001 4.469-21.416 29.592-19.802m-8.854-84.364c9.9-.281 21.431 2.4 28.45 2.4a32.1 32.1 0 0 0 21.958-7.82c7.657-6.382 27.795-22.1 31.823-25.443 5.36-4.441 16.79-13.44 23.369-14.011 0 0-5.328-.483-15.792 6.434-6.315 4.173-16.375 11.722-22.332 15.314a33.45 33.45 0 0 1-23.445 4.144c-10.369-2.074-19.9-5.026-24.685-5.026s-8.973-.877-15.672 4.546-19.28 16.714-22.013 19.941c-2.285 2.694-11.965 12.122-6.221 20.578a8.45 8.45 0 0 1 0-7.338c2.393-4.826 6.521-7.538 10.2-9.421 3.304-1.694 8.737-4.138 14.36-4.298m113.496 43.229c3.584-7.417 7.179-21.773 6.939-33.258s-3.351-18.9-9.332-27.039-10.528-6.46-15.314-5.742c-3.63.544-20.323 11.224-28.172 16.351l-4.1 2.7c-9.834 6.295-22.717 16.427-22.717 26.324v98.783s.508 23.6-14.477 32.426c0 0 33.7-16.632 33.7-32.635v-98.783s-.331-15.711 7.684-26.287c3.969-3.6 12.3-8.831 16.123-10.267s8.19-.7 11.725 5.5c2.669 4.685 4.784 14.358 5.024 22.013s.568 21.674-1.2 29.79a49.8 49.8 0 0 1-11.725 23.569c-7.335 8.385-27.636 18.663-27.636 18.663 8.494-3.509 12.911-5.679 23.09-12.2 12.741-8.164 26.746-22.367 30.388-29.908"/><path d="M611.801 489.927a17 17 0 0 1-1.236 9.731c-1.478 3.674-5.3 6.979-9.531 6.78-5.026-.238-10.4-1.2-14.107-7.179-3.656-5.9-9.1-30.149-10.659-39.121-1.437-8.292-4.015-18.026-7.188-23.569-2.741-4.786-8.245-7.657-16.38-8.375-9.489-.837-26.2 5.982-26.2 5.982 8.255-2.631 13.179-2.242 14.955-1.794a11.36 11.36 0 0 1 8.749 8.85c.93 4.381 4.164 16.234 7.043 36.134a120 120 0 0 0 6.107 23.323l-.6.724s-2.872 2.633-5.623 2.512-9.922-4.148-15.208-5.659c-6.165-1.762-17.2-3.17-30.733.157-14.6 3.589-27.158 9.092-34.216 13.877-11.035 7.481-21.517 17.731-27.637 24.527 0 0 11.525-9.213 17.966-12.073a73.2 73.2 0 0 1 17.646-5.514c6.437-1.032 15.74.093 19.539.62a30.55 30.55 0 0 1 12.563 4.765c4.548 3.111 8.614 8.135 10.529 8.375s5.264.24 6.7-.957c1.368-1.141 25.122-23.148 29.2-31a138 138 0 0 0 6.2 14.5s12.928 17.945 19.509 14.6 20.7-24.766 22.787-30.508-.175-9.708-.175-9.708"/><use href="#a"/><path d="m392.998 34.691-1.006-.46a8.6 8.6 0 0 1-1.228-.658 16.8 16.8 0 0 1-3.7-3.456c-.77-.921-1.442-1.9-2.121-2.874.849 2.923 1.961 5.965 3.186 6.935a27.7 27.7 0 0 0 5.806 3.215 37.4 37.4 0 0 1 5.452 3.266 44 44 0 0 0 4.068 2.53l-1.639-1.5a43.4 43.4 0 0 0-6.893-5.945 18 18 0 0 0-1.925-1.053m44.204-1.898a8.6 8.6 0 0 0-2.625-.654 21 21 0 0 0-2.963-.174 18.2 18.2 0 0 0-4.957.831 12.3 12.3 0 0 1 1.68 5.064 10 10 0 0 1-.4 3.567 41 41 0 0 0 4.392-1.984 19 19 0 0 0 4.736-3.306c1.173-1.226 1.267-2.817.137-3.344m-12.81 13.671q7.6.508 15.2 1.211l1.5-.892-.736-7.2-.461-2.648a7 7 0 0 1-.7 1.022 21.4 21.4 0 0 1-5.346 4.18 45 45 0 0 1-9.867 4.311zm-19.096-.625a28.3 28.3 0 0 1-6.867-3.773 36 36 0 0 0-5.2-3.126l-1.785-.854c.147 1.461.536 3.515.825 5.027l.136.716q2.307.985 4.589 1.967zm101.465 17.488a117 117 0 0 0-11.679-3.737v.182c-3.6.779-6.078 3.894-9.552 6.22a9.3 9.3 0 0 1-3.242 1.481 20.5 20.5 0 0 0-2.66.664 35.5 35.5 0 0 0-5.2 2.359c-3.454 1.774-7.1 4.109-11.65 4.383-4.584.159-8.6-1.886-11.835-4.566-3.253-2.662-5.568-6.386-7.406-9.812a22.6 22.6 0 0 0-3.251-4.615 6.28 6.28 0 0 0-4.461-2.059c-1.629.061-3.488 1.322-5.985 1.087a2.57 2.57 0 0 1-1.843-1.035c-.363-.489-.579-.918-.84-1.281a6.8 6.8 0 0 0-1.9-1.875 13.4 13.4 0 0 0-1.788-.9l-21.7-1.952 7.261 3.237c6.1 3.208 11.78 6.734 17.543 10.267 5.733 3.5 11.438 7.26 16.929 11.113l31.9 22.147 20.35-20.553q5.487-5.389 11.009-10.755m32.177-36.433a51.4 51.4 0 0 0-10.445 3.712 101 101 0 0 0-13.244 7.7c-8.077 5.436-15.665 11.672-23.465 17.679A94 94 0 0 1 508 62.127l25.212-24.117-35.317 38.151-35.2 38.24-35.018 38.266a245 245 0 0 0-15.808 20.2c-2.433 3.541-4.783 6.986-5.979 10.458a11.15 11.15 0 0 0-.692 4.951q.064.594.2 1.176l.073.389c.24-.292.5-.594.832-.93a7.3 7.3 0 0 1 1.11-.935l.886-.533a17 17 0 0 1 3.694-1.588 18.9 18.9 0 0 1 15.175 2.132c2.23 1.295 4.3 3.888 5.261 4.989a2.7 2.7 0 0 0 .741.629c.034-.031.092-.081.191-.166.728-.676 1.5-2.663 2.564-4.818a56 56 0 0 1 3.471-5.982 65.9 65.9 0 0 1 19.718-18.684 78.6 78.6 0 0 1 12.018-6.139 104 104 0 0 0 11.5-5.142 24.1 24.1 0 0 0 8.489-7.787 124 124 0 0 0 6.227-11.042 66.5 66.5 0 0 1 17.441-20.434c6.892-5.588 14.24-10.28 21.249-15.253a43.5 43.5 0 0 0 4.9-3.821 40 40 0 0 0 4.174-4.526c2.423-3.1 4.523-6.794 4.538-10.268-1.507-2.046-2.964-1.81-2.868-5.953.119-5.143 4.306-13.28 3.23-26.559s-1.674-19.021-4.306-20.1c-1.147-.471-3.823-.417-6.768-.037m-58.961 26.312-.11-10.508c-4.971 2.795-10.128 5.049-14.755 8.06 4.963.709 9.918 1.495 14.865 2.448m-52.931-3.03a8 8 0 0 1 1.446 1.455l.849 1.171c.318.305.2.26.693.324 1.562.139 3.276-1.06 5.615-1.342a8.34 8.34 0 0 1 6.185 2.5 24.7 24.7 0 0 1 3.767 4.983 30.5 30.5 0 0 0 7.087 8.941c2.825 2.343 6.484 4 9.923 3.8 3.515-.208 6.893-2.272 10.395-4.164a38 38 0 0 1 5.623-2.617 23 23 0 0 1 3.111-.812 6.6 6.6 0 0 0 2.15-.977c1.574-.968 3.2-2.181 5.015-3.2a14.5 14.5 0 0 1 3.321-1.344 144 144 0 0 0-11.559-2.286l-28.215-3.74zm16.563-2.072 9.3.985.15.02 2.7-2.9c-.015-2.73-.214-7.55-.547-11.694-1.296 3.715-6.196 9.66-11.603 13.589m-83.326 20.032a29.3 29.3 0 0 0 9.337 6.04 14.43 14.43 0 0 0 10.326.27 17.54 17.54 0 0 0 8.039-6.849 25.3 25.3 0 0 0 2.491-4.972 16.4 16.4 0 0 1 1.52-2.937 6.13 6.13 0 0 1 3.152-2.559 4.77 4.77 0 0 1 4.441.86 7.47 7.47 0 0 1 2.115 3.21c.8 2.159.993 4.1 1.608 5.714a22.3 22.3 0 0 0 6.179 8.868c5.522 4.98 12.967 7.5 20.445 9.476 7.532 1.965 15.211 3.441 22.971 4.92 4.906.987 9.743 2.1 14.562 3.195l-26.1-17.762c-5.557-3.8-11.093-7.422-16.847-10.908-5.707-3.47-11.482-7.006-17.294-10.03-12.111-5.168-24.742-10.314-37.252-14.472a167.7 167.7 0 0 0-37.646-7.651c3.97 6.3 7.866 12.553 12.281 18.435a109.7 109.7 0 0 0 15.672 17.152m89.989-44.352c-7.125-3.751-12.767-2.043-19.954.786-7.736 3.039-20.458 10.016-26.816 15.2l.079.076c2.167 2.1 4.436 3.943 7.1 4.458a12 12 0 0 0 1.443.11c.964.093 1.955-.023 2.931-.023a44 44 0 0 0 5.9-.809 50 50 0 0 0 6.334-1.9 9.4 9.4 0 0 0 .078-3.7 12 12 0 0 0-2.663-5.215l-.67-.826 1.032-.444.035-.015a20.3 20.3 0 0 1 6.383-1.668 19 19 0 0 1 3.337-.032 10.7 10.7 0 0 1 3.494.757 4 4 0 0 1 2.217 2.766c.026.063.07.13.092.191a17 17 0 0 1 .58 1.962c.307 1.3.531 2.595.73 3.891.315 2.091.522 4.181.721 6.278 4.787-3.656 9.266-9.046 10.235-12.14l.2-.634c.689-2.15 1.4-4.377.544-6.105a7.27 7.27 0 0 0-3.362-2.964M320.164 66.445a66.8 66.8 0 0 0 6.04 22.195l1.338 2.537 1.446 2.556c.97 1.573 2.126 3.1 2.96 2.924a3.93 3.93 0 0 0 2.034-.556 4.2 4.2 0 0 0 1.591-1.44c.359-.82.632-1.676.814-2.553a9.3 9.3 0 0 1 .6-1.632l.687-1.35c1.846-3.586 3.886-7.017 5.656-10.535a33.5 33.5 0 0 0 3.076-8.28q-5.268-14.612-11.065-29.038-2.465-4.313-4.717-8.7a15 15 0 0 0-1.933.217 72.8 72.8 0 0 0-7.492 15.405 53.6 53.6 0 0 0-1.035 18.25m74.071 147.725a31.8 31.8 0 0 0-1.271-6.661 29.3 29.3 0 0 0-3.3-5.8l-4.461-6.113-4.768-6.079-4.71-6.29-9.251-12.565c-6.177-8.361-12.313-16.7-18.954-24.615a163.7 163.7 0 0 0-21.81-22.015l.275-.368a154.4 154.4 0 0 1 23.778 20.355c7.3 7.5 14.106 15.436 20.888 23.314l4.177 4.85a604 604 0 0 0-14.983-61.276q-5.772-19.306-12.6-38.3a40.6 40.6 0 0 1-2.272 6.748c-1.6 3.709-3.436 7.255-5.03 10.862l-.591 1.353a7 7 0 0 0-.351 1.2 14.6 14.6 0 0 1-.857 3.173 6.97 6.97 0 0 1-2.564 2.755 7.07 7.07 0 0 1-3.609 1.187 6 6 0 0 1-1.023-.058 4.3 4.3 0 0 1-1.185-.382 6.6 6.6 0 0 1-1.629-1.171 16.6 16.6 0 0 1-2.136-2.579c-.6-.864-1.158-1.782-1.654-2.558l-1.609-2.67a65 65 0 0 1-5.131-12.11c-2.445.695-10.626 2.788-18.527 2.321a79.6 79.6 0 0 1 7.356 10.242l6.889 11.212c-3.021-3.178-5.893-6.518-8.854-9.712a92.8 92.8 0 0 0-19.565-16.3 43 43 0 0 0-10.509-4.891c-2.818-.238-8.039-.275-8.039-.275s19.774 30.63 14.988 55.036c0 0 .487-.006 1.315.009a32.6 32.6 0 0 1 10.725.182 88 88 0 0 1 11.131 2.723 36.4 36.4 0 0 1 10.355 5.214 28.8 28.8 0 0 1 7.893 7.965 25.2 25.2 0 0 0-6.661-5.017 62.2 62.2 0 0 0-14.573-4.227 76 76 0 0 0-8.576-.244 39 39 0 0 0-3.219.276c3.361 2.294 17.12 12.321 22.563 26.135 6.221 15.793 21.535 38.764 21.535 38.764s11.485 15.314 20.1 15.792a27.79 27.79 0 0 1 25.841-3.828c7.048 2.5 11.589 4.238 14.439 5.38.013-.307.035-.602.024-.944m144.41-112.464c-6.954 5.279-14.078 10.175-20.475 15.728-6.412 5.546-12.006 11.7-15.734 19.13a126 126 0 0 1-6.357 11.681 30.3 30.3 0 0 1-9.175 9.037c-.426.9-.887 1.776-1.26 2.708q-.49 1.23-.912 2.494l-.4 1.272-.191.641-.089.322-.044.162-.021.081-.011.04-.006.02v.011c-.06-.009.519.084.275.046a47.7 47.7 0 0 0-.153 9.393c.206 3.147.5 6.571-.379 9.98a76 76 0 0 1-7.747 18.151c-3.508 5.462-6.669 10.72-8.544 16.406-1.918 5.627-2.333 11.594-2.127 17.73h-.179c.067 1.377.168 2.7.324 3.862a81.7 81.7 0 0 0 14.948-19.374c6.34-11.6 13.159-19.741 16.749-22.971s20.816-15.314 20.816-15.314 13.281-15.792 16.031-24.166c2.689-8.182 8.039-27.811 6.5-58.494zm-77.1 115.077c2.665-6.307 6.673-11.783 10.471-16.774a72.7 72.7 0 0 0 8.607-16.41c.97-2.761.988-5.847 1.026-9.057a50 50 0 0 1 .936-9.718c-.244-.04.334.05.275.04v-.169l.009-.173.02-.342.053-.686.131-1.371q.153-1.37.385-2.74c.008-.041.021-.082.029-.125-3.32 1.73-6.678 3.082-9.847 4.465a84.6 84.6 0 0 0-11.045 5.777 59.35 59.35 0 0 0-17.763 16.787 49 49 0 0 0-3.045 5.25c-.933 1.66-1.466 3.957-3.743 6.476a6.73 6.73 0 0 1-5.661 2.115 8 8 0 0 1-4.685-2.616c-1.886-2.138-2.526-3.025-4.045-4a12.38 12.38 0 0 0-9.819-1.377 10.5 10.5 0 0 0-2.259.973l-.509.3c.061-.047-.029.023-.122.119a11 11 0 0 0-.8.944 35 35 0 0 1-2.28 2.788 6 6 0 0 1-2.964 1.814 4.3 4.3 0 0 1-3.346-.664 3.6 3.6 0 0 1-.762-.687 4.3 4.3 0 0 1-.423-.593l-.144-.284a6 6 0 0 1-.334-.869 27.5 27.5 0 0 1-.683-3.7l-.177-1.268a17 17 0 0 1-.354-2.02 17.7 17.7 0 0 1 1.014-7.819c1.686-4.746 4.49-8.42 6.973-11.975a251 251 0 0 1 16.567-20.431c5.812-6.521 11.835-12.8 17.843-19.044l18.075-18.684 13.014-13.142-19.942-4.2c-7.719-1.408-15.556-2.75-23.253-4.841-7.619-2.057-15.639-4.7-21.932-10.378a25.9 25.9 0 0 1-7.121-10.35c-.748-2.091-.965-4.125-1.564-5.656a4.14 4.14 0 0 0-1.025-1.712 1.2 1.2 0 0 0-1.115-.226c-1.912.536-2.88 5.687-5.294 9.016a21 21 0 0 1-9.731 8.15 17.9 17.9 0 0 1-12.763-.3 31.1 31.1 0 0 1-10.348-6.751 102.6 102.6 0 0 1-16.712-19.625c8.254 19.22 15.844 38.739 22.558 58.59a588 588 0 0 1 19.863 72.98l7.215 8.379c1.687 2.037 3.352 4.109 4.951 6.307a34.7 34.7 0 0 1 4.513 7.632 41 41 0 0 1 2.263 8.485 17.6 17.6 0 0 1-.469 6.728c2.816 1.729 7.467 3.744 14.842 4.934 14.834 2.393 31.105 4.306 39.72 0l2.436-1.219a44 44 0 0 1 2.29-7.053M391.088 21.381a74 74 0 0 1 8.013 2.534c4.971 1.846 9.767 4.038 14.6 6.067a130 130 0 0 1 15.691-7.782c7.577-2.972 14.008-4.91 22.076-.667a9.9 9.9 0 0 1 4.467 4.094c.029.06.043.119.07.179 1.732 2.715 2.208 11.288 2.3 18a84 84 0 0 1 9.929-7.945 51 51 0 0 1 9.279-4.963 29.5 29.5 0 0 0 8.8-5.433 29.9 29.9 0 0 1-8.454 6.124 49.6 49.6 0 0 0-8.721 5.525 82.3 82.3 0 0 0-12.6 12.464l6.272.858c6.084-4.636 13.138-7.58 19.116-11.8a47.4 47.4 0 0 0 8.509-8.04 65 65 0 0 1 7.455-7.454 4.7 4.7 0 0 0 .57-1.477c.48-3.23-.119-6.221-2.75-6.939s-9.094 1.077-13.878 0-7.3-2.871-10.169-2.512-13.759 3.35-17.827 6.58c0 0-2.391-1.794-9.929-1.316S416.74 2.405 416.74 2.405s-3.47-3.709-7.179-1.913a73 73 0 0 0-17.945 12.681c-2.205 2.1-5.16 4.606-8.314 7.177a32 32 0 0 1 7.786 1.031m-6.044 1.538a63 63 0 0 0 3.977 5.566 14.4 14.4 0 0 0 3.111 2.935 6 6 0 0 0 .834.454l1.127.513q1.131.532 2.187 1.2a33.7 33.7 0 0 1 5.378 4.4 86.5 86.5 0 0 1 10.656-7.2c-4.622-1.745-9.187-3.583-13.838-5.1a50.4 50.4 0 0 0-13.432-2.768m-13.697 12.948a189 189 0 0 1 18.244 6.768 28 28 0 0 1-.712-5.969 17 17 0 0 1-1.808-1.156c-2.144-1.7-3.65-6.883-4.951-12.371l-.505-.754-.011-.017-.284-.411-15.593 12.324c1.887.481 3.766.998 5.62 1.586m142.129-.072a105 105 0 0 1 13.342-8.552l1.054-.515c-.918-2.414-2.73-5.6-6.211-6.738-5.811-1.9-13.258 11.833-14.2 20.465a184 184 0 0 1 6.015-4.66m-30.19 4.864-.884.539.13 12.522q3.617.728 7.194 1.674l16.569-13.985-1.5.956s-8.81-5.733-13.044-8.947a46.8 46.8 0 0 1-8.465 7.241"/></g><defs><path id="a" d="M567.098 567.686a14.05 14.05 0 0 0-6.475.732 34 34 0 0 0-5.766 2.588 65.3 65.3 0 0 0-10.018 7l-4.841.646-5.123.634a66 66 0 0 0-8.874 2.2 1.5 1.5 0 0 0-.654-.832 3.55 3.55 0 0 0-1.863-.284 10 10 0 0 0-3.042.686 22 22 0 0 0-5 3.205 70 70 0 0 0-7.985 7.854l-2.31.209-.2.018-.153.095a22.8 22.8 0 0 0-5.181 4.27 10.9 10.9 0 0 0-1.889 2.938 20 20 0 0 0-.866 3.276c-.444 2.075-.672 4.4-1.79 5.629-.476.553-1.565.837-1.8.548a3.1 3.1 0 0 1-.6-2.237l.044-.8-.753-.092a3.2 3.2 0 0 0-2.874 1.444 11.7 11.7 0 0 0-1.38 2.294 29.3 29.3 0 0 0-1.735 4.823l-.026.093v.121q-.002.676-.092 1.347a1.2 1.2 0 0 1-.114.513 4.5 4.5 0 0 1-.913-.143 15 15 0 0 1-1.324-.4l-.589-.209-.33.435a7.4 7.4 0 0 0-1.216 3.066l-.484 2.921-.51 5.8c-.2 3.418-.282 6.825-.305 10.242a1.4 1.4 0 0 0-.209-.017 2.9 2.9 0 0 0-1.568.626l-.319.234v.435l.315 27.733-17.219 18.325q.014-.03.032-.06c.817-1.768 1.347-3.463 2.022-5.175.646-1.7 1.293-3.4 2.069-4.989.2-.392.4-.783.622-1.153a8.7 8.7 0 0 0 .728-1.324c.301-.944.488-1.92.559-2.908.18-1.875.2-3.72.217-5.562a40 40 0 0 0-.2-5.658 2.8 2.8 0 0 0-.348-.929 1.2 1.2 0 0 0-.91-.579 1.23 1.23 0 0 0-.983.415c-.055.157-.249.16-.577.18a1.26 1.26 0 0 1-1.183-1.015c-.166-.583-.082-1.671-.322-2.663a4.84 4.84 0 0 0-1.614-2.92l-1.1.153c.06-.107.255 0 .058-.118a2.1 2.1 0 0 1-.483-.706 9.5 9.5 0 0 1-.658-2.158c-.325-1.535-.342-3.163-.673-4.9a20 20 0 0 0-1.591-4.905 18.8 18.8 0 0 0-2.811-4.384l-1.712-1.964.247 2.642a37 37 0 0 1-.5 8.587 77 77 0 0 1-.776 4.3 20 20 0 0 1-.527 2.051 7.5 7.5 0 0 1-.362.927c-.064.234-.455.657-.246.505l-.258.2a14 14 0 0 0-1.628 3.1 46 46 0 0 0-1.15 3.1 27 27 0 0 0-.878 3.234 9 9 0 0 0-.128.893l-.014.838q0 .244-.072.478c-.107.038.333-.3.528-.108l-1.242.591a19.86 19.86 0 0 0 1.022 9.1 42 42 0 0 0 3.657 8.182 46.7 46.7 0 0 1 3.439 7.913 9.6 9.6 0 0 1 .2 3.99 3.8 3.8 0 0 1-.266.854.7.7 0 0 1-.18.263l-.363.422-1.435 1.7a89.2 89.2 0 0 0-10.262 14.567 54 54 0 0 0-3.862 9.741l.044-7.758a136 136 0 0 1 1.144-14.929 82 82 0 0 0 4.27-10.873 41 41 0 0 0 1.321-5.835 14.2 14.2 0 0 0-.226-6.281l-1.264-4.048-.356 4.344a16.1 16.1 0 0 1-2.107 6.881 15.7 15.7 0 0 1-3.534 4.2c.24-6.655 1.269-13.538 2.062-20.283a189 189 0 0 0 1.692-22.245c.131-7.44-.269-14.932 1.582-21.914a37.9 37.9 0 0 1 4.639-9.807l3.025-4.621a16 16 0 0 1 1.664-2.033 5.1 5.1 0 0 1 1.715-1.213l.116-.009c1.985-.339 3.735-.877 5.56-1.352l5.41-1.382a37 37 0 0 0 5.553-1.4 23.8 23.8 0 0 0 5.162-2.726l.032-.023.047-.046c3.213-2.993 6.585-5.875 10.005-8.662a56 56 0 0 0 5.116-4.407 14.3 14.3 0 0 0 2.156-2.795c.493-1.1 1.278-2.239.463-4.061l-.4-.9-.765.681c-.385.129-.8.14-1.191.031a1.5 1.5 0 0 1-.7-.281 7.4 7.4 0 0 0 2.344-2.049 24.7 24.7 0 0 0 3.306-7.124l.024-.075.009-.125a24.1 24.1 0 0 1 1.807-8.41 22.6 22.6 0 0 0 1.455-8.907 23.5 23.5 0 0 0 2.949-5.51 51 51 0 0 0 1.967-6.157v-.083l-.029.078c-.5 1.274-1.133 2.477-1.733 3.7a16 16 0 0 1-2.234 3.059 5.46 5.46 0 0 1-3.311 1.8 26 26 0 0 0-3.952-.113 82 82 0 0 0-15.605 2.963 38 38 0 0 0-3.8 1.287 6.7 6.7 0 0 0-1.884 1.064c-.538.725-.7.98-1.174 1.037a7.3 7.3 0 0 0-2.069.115 5.4 5.4 0 0 0-1.877 1.18 9 9 0 0 0-2.246 3.557 46.3 46.3 0 0 0-1.66 7.846c-.227 1.2-.57 2.634-1.2 3.063a1.8 1.8 0 0 1-1.15.457c-.081.037-.348-.388-.385-.849l-.4-2.051-1.115 1.6a10.9 10.9 0 0 0-1.332 2.929c-.3.962-.557 1.926-.791 2.889-.351 1.487-.622 2.978-.89 4.474-.024-.024-.067-.041-.092-.067a1.8 1.8 0 0 1-.321-.444c-.076-.1-.084-.362-.1-.24l-1.559-.606a23.2 23.2 0 0 0-2.311 6.053 59 59 0 0 0-1.228 6.218 115 115 0 0 0-1.113 12.269 73 73 0 0 0-6.895 10.509c.244-4.992.171-9.906.209-14.871l-.2-19.054-.427-19.052c-.064-3.184-.318-6.345-.119-9.5a84 84 0 0 1 1.034-9.425c1.1-3.689 2.117-7.4 3-11.152q.8-3.427 1.4-6.9c.531-2.888.651-4.326.66-4.453v-.028a40.8 40.8 0 0 1-3.621 8.8 14.1 14.1 0 0 1-2.9 3.55 4.76 4.76 0 0 1-3.32 1.232 60 60 0 0 1-2.217-8.64 333 333 0 0 1-1.755-9.389l-3.007-18.638a108 108 0 0 0 6.122-14.355 73 73 0 0 0 2.164-7.683 39 39 0 0 0 1.014-8.032l.009-6.276-1.677 6.089a47.2 47.2 0 0 1-3.59 9.195 38 38 0 0 1-2.575 4.192 29 29 0 0 1-1.813 2.266l-.637-16.955c-.118-6.295.145-12.6.582-18.9l3.167-37.847c1.029-12.637 1.286-25.348 1.79-37.973l1.393-37.778 1.1-2.28c1.642-2.689 3.213-5.42 4.624-8.242a81 81 0 0 0 3.764-8.752 61.4 61.4 0 0 0 2.569-9.2 34.5 34.5 0 0 0 .617-9.671l-.731-7.124-.953 7.168a29 29 0 0 1-1.122 5.352 23.7 23.7 0 0 1-2.2 4.98 22.5 22.5 0 0 1-3.286 4.328 20.5 20.5 0 0 1-2.663 2.294 152 152 0 0 1 3.123-16.748 182 182 0 0 0 3.807-18.785q.347-2.408.446-4.839c-.047-1.694.119-3.228-.721-5.105-1.032-1.733-2.5-2.5-3.77-3.467l-3.922-2.717a32.3 32.3 0 0 1-6.985-6.1 21 21 0 0 1-2.534-3.813 17 17 0 0 1-.9-2.083 13 13 0 0 1-.337-1.07l-.128-.536-.053-.264-.02-.127-.024-.145a1 1 0 0 0-.573-.686 1.97 1.97 0 0 0-1.057.489 2.1 2.1 0 0 0-.432.6 5.7 5.7 0 0 0-.423.892 9 9 0 0 0-.48 1.829 13.2 13.2 0 0 0-.034 3.663 12.3 12.3 0 0 0 .979 3.544 15 15 0 0 0 2.007 3 19.3 19.3 0 0 1 4.545 12.124c.171 8.892-5.328 17.3-5.151 26.8-1.13 17.555-1.759 35.1-2.417 52.648a32.5 32.5 0 0 1-4.965-9.282 44.2 44.2 0 0 1-2.394-12.592l-.325-8.35-1.359 8.2a71 71 0 0 0-1.115 12.67 84 84 0 0 0 1.006 12.647 102.7 102.7 0 0 0 6.788 24.156c-.278 15.02-.965 30.046-1.829 45.049a13 13 0 0 1-1.967-3.645 49 49 0 0 1-1.71-5.695 114 114 0 0 1-2.139-11.814h-.226l-.009.185c-.574 9.977.564 19.942 1.826 29.815l2.112 14.787c.434 4.943.592 9.907.473 14.868-.061 9.95-.258 19.912-.727 29.842-.5 9.587.8 19.1 2.648 28.46a8 8 0 0 1-.974-.664 22 22 0 0 1-1.95-1.773c-1.254-1.271-2.433-2.642-3.579-4.039-2.286-2.8-4.442-5.73-6.507-8.718l-.04.021.076.174c.4.944.863 1.863 1.28 2.8l.47 1.028c2.117 4.682 4.366 9.309 6.916 13.777 3.147 5.722 7.014 11.136 10.473 16.551 1.364 2.83 1.574 6.168 2.033 9.385.183 1.6.518 3.308.735 4.842.185 1.6.279 3.225.376 4.849.266 5.314.374 10.647.444 15.978-.154-.394-.33-.779-.455-1.179a31 31 0 0 0-1.852-4.537 39.8 39.8 0 0 0-4.484-6.849c-.515-.7-.841-1.106-.886-1.159-.011-.012-.018-.026-.031-.04l.047.092c.014.026.031.066.046.093a40.5 40.5 0 0 1 2.558 8.046 69 69 0 0 1 1.358 8.343 60.4 60.4 0 0 0 3.874 16.454v.046l-.447 37.866a40.7 40.7 0 0 1-4.526-9.4 91 91 0 0 1-3.387-12.641l-1.408-7.185-.278 7.3a82 82 0 0 0 1.475 19.359c1.217 6.371 3.637 12.528 6 18.391a10 10 0 0 1 .559 2.121c.064.742.084 1.547.1 2.336v4.789l-.235 9.6c-.116 3.2-.267 6.4-.489 9.586-.115 1.59-.238 3.187-.444 4.737-.095.684-.254 1.776-.431 1.742a9 9 0 0 0-1.321 1.606 9.4 9.4 0 0 1-4.693-1.712c-.806-.53-1.413-1.153-2.37-1.851-.6-.473-1.4-1.27-2.08-1.932a304 304 0 0 1-8.355-8.553l-8.21-8.729-4.059-4.393-.982-1.1c-.339-.4-.345-.354-.376-.82a8.6 8.6 0 0 1 .313-2.228 16 16 0 0 0 2.639-.9c1-.444 1.952-.916 2.914-1.431l-.066.032a9.9 9.9 0 0 0 3.932-2.961 7.7 7.7 0 0 0 1.165-2.265 6.6 6.6 0 0 0 .311-2.6l-.429-.632c.189.151.237.221.246.252q.018-.166.078-.321.17-.457.437-.866a15 15 0 0 1 1.315-1.75 20 20 0 0 0 1.483-1.927 6.5 6.5 0 0 0 .629-1.18 2.6 2.6 0 0 0 .188-.838 1.28 1.28 0 0 0-.835-1.332l-.021-.009-.073-.014-1.151-.209c-.327-.2-.4-.3-.385-.47a3 3 0 0 1 .6-1.161c.315-.432.689-.867 1.069-1.312a2.4 2.4 0 0 1 .438-.418c.061-.049.125-.046.528-.1a7.57 7.57 0 0 0 3.442-1.923 8.9 8.9 0 0 0 2.347-3.027 30.7 30.7 0 0 0 2.3-6.863 67 67 0 0 0 1.198-7.043l.174-1.507-1.4.658a3.4 3.4 0 0 1-1.13.31 1.1 1.1 0 0 1-.295-.027 14 14 0 0 1 .012-2.749c.154-1.982.418-3.992.718-5.973l.015-.1-.011-.141a1.66 1.66 0 0 0-1.964-1.329c-.337.092-.51.128-.6.151a10.4 10.4 0 0 1-.05-1.768 19.4 19.4 0 0 0-.832-5.359 21.7 21.7 0 0 0-2.216-4.92 23 23 0 0 0-3.1-4.015c-.095-1.952-.383-3.781-.622-5.62q-.332-2.211-.695-4.4l-.2-1.293-.008-.052c-.452 4.522-2.379 8.721-3.944 12.944-1.871 4.122-5.382 7.241-8.81 10.111a48 48 0 0 1-5.464 3.934c-1.216.609-1.584 1.883-2.049 2.889-.426 1.072-.762 2.167-1.081 3.262a89 89 0 0 0-.892 3.3c-.134.6-.278 1.006-.4 1.729l-.163 1.7a35 35 0 0 1-.159 1.213l-.779.2a1 1 0 0 0-.322.127l-.154.1a7.06 7.06 0 0 0-1.707 3.439 28 28 0 0 0-.683 3.37 19.8 19.8 0 0 0 .5 6.911 55 55 0 0 0 1.99 6.463c.33.936.709 1.932.935 2.773a6 6 0 0 1-.812-.525l-2.1-1.634.742 2.5a14.4 14.4 0 0 0 1.878 3.706 62 62 0 0 0 2.3 3.2 116 116 0 0 0 4.731 5.714l-.084.664c-3.344-3.659-6.658-7.359-9.805-11.166-1.681-2.179-3.679-4.265-4.343-6.695a17.94 17.94 0 0 1-.194-7.886 39.1 39.1 0 0 0 1.837-12.4 41.4 41.4 0 0 0-1.99-12.484l-.637-1.946-.928 1.86a4 4 0 0 1-.3.513 6 6 0 0 1-.481-1.578l.009.1a19.9 19.9 0 0 0-1.49-6.8 21 21 0 0 0-3.648-5.959l-.542-.617-.75.678c-.156.142-.105.1-.145.107a1.3 1.3 0 0 1-.507-.333 7 7 0 0 1-1.151-1.562l.029.06a10.55 10.55 0 0 0-2.436-3.491 7.2 7.2 0 0 0-1.845-1.249 2.82 2.82 0 0 0-2.738-.041c-.031.014-.006.008-.017.015a1.1 1.1 0 0 1-.246-.344 10.4 10.4 0 0 0-1.112-1.829 4.53 4.53 0 0 0-4.2-2.042l-.631.082-.015.687c-.021.944-.632 2.02-.707 1.729-.5-.092-1.391-1.012-1.987-1.831-1.261-1.69-2.355-3.831-3.9-5.6a26.6 26.6 0 0 0-5.162-4.717 23.2 23.2 0 0 0-6.31-3.155l-1.055-.328v1.179a1.3 1.3 0 0 1-.244-.061 9 9 0 0 1-1.7-.811l.057.038c-2.984-2.049-6.495-2.6-9.825-2.749a44 44 0 0 0-9.488.738 36 36 0 0 0-5.647-5.556 16.2 16.2 0 0 0-3.781-2.135 6.27 6.27 0 0 0-4.725-.165l-2.077.847 2.24.719c2.071.663 3.624 2.686 4.676 4.813a23.5 23.5 0 0 1 2.1 6.967c.448 2.38.308 4.834-.408 7.148a42.7 42.7 0 0 0-1.118 7.649c-.179 2.549-.228 5.1-.231 7.632a29.2 29.2 0 0 0 1.164 7.689 39.3 39.3 0 0 0 2.643 7.281 19 19 0 0 0 1.008 1.73l1.158 1.518a2.5 2.5 0 0 1 .559 1.212c.044.125-.1.225-.48.315l-1.258.3.56.944a5.8 5.8 0 0 0 2.483 2.111l2.491 1.261c.757.374 1.581.968 1.559 1.217.014.26.057.16-.1.295a1.96 1.96 0 0 1-.878.212l-1.735.02 1.045 1.355a28.6 28.6 0 0 0 3.525 3.831 15.6 15.6 0 0 0 2.106 1.622 17 17 0 0 0 2.352 1.161 17 17 0 0 1 3.967 2.665 16.6 16.6 0 0 1 1.683 1.7c.049.055.067.084.1.124a1.2 1.2 0 0 1-.345.095l-1.142.044.414 1.02c.206.539.593.988 1.095 1.272a11 11 0 0 0 1.026.6c.68.353 1.359.654 2.043.942a76 76 0 0 0 4.119 1.571c2.656.933 5.323 1.779 8.017 2.584a3.22 3.22 0 0 0 1.573 1.214c.62.237 1.263.409 1.919.513a26 26 0 0 0 3.725.3 61 61 0 0 0 6.4-.272 1.9 1.9 0 0 0 .157.56c.156.277.376.514.641.69a2.4 2.4 0 0 0 .826.347l.081.018.124-.006 8.31-.368 4.143-.083c.686 0 1.379 0 2.042.035.345.006.644.044.956.072.182.041.2.035.457.273 1.892 1.814 3.726 4 5.531 6.073l4.589 5.449c-2.133-.57-4.108-.905-6.179-1.281q-3.39-.57-6.8-1a28 28 0 0 0-7.017-.171 19.4 19.4 0 0 0-6.884 1.962l.118 1.547c-.1-.075.052.083.166.264a16.5 16.5 0 0 0-4.387 2.031 39.5 39.5 0 0 0-4.642 3.43l-.266.226-.028.371a38 38 0 0 1-.7 5.4 1.55 1.55 0 0 1-.366.846 2.06 2.06 0 0 1-.837.484 6.8 6.8 0 0 1-2.411.241l-.389-.026-.267.241a33 33 0 0 0-4.569 4.878 17 17 0 0 0-1.785 2.923 7.45 7.45 0 0 0-.866 3.622l.055 1.281.979-.522a9.5 9.5 0 0 0-1.759 3.346 19.5 19.5 0 0 0-.35 8l.154 1.127 1.067-.489a11.8 11.8 0 0 0-.267 3.732 29.6 29.6 0 0 0 .7 4.352c.324 1.419.718 2.811 1.124 4.184.194.671.426 1.4.553 1.978.008.049.008.04.011.049a5 5 0 0 0 .017.547c.124.385.395.705.753.893a4 4 0 0 0 .5.231 5.4 5.4 0 0 0 .086 1.883 3.8 3.8 0 0 0 1.133 1.909 17.5 17.5 0 0 0-1.084 4.871 18.7 18.7 0 0 0 .42 5.681l.644 2.753.989-2.687a30.9 30.9 0 0 1 6.23-9.853 29 29 0 0 1 4.346-3.9 9.3 9.3 0 0 1 2.407-1.281 1.57 1.57 0 0 1 1.687.162l.334.707.73-.258a19.5 19.5 0 0 0 6.573-4.3 47 47 0 0 0 2.689-2.743c1.176-1.2.744-1.154 1.57-.365l.509.486.374-.1a8.8 8.8 0 0 0 3.014-1.62 38 38 0 0 0 2.417-1.967 34.4 34.4 0 0 0 4.367-4.428 73 73 0 0 0 3.708-4.925c.583-.855 1.148-1.664 1.713-2.581a13.6 13.6 0 0 0 1.3-2.973 46.4 46.4 0 0 0 1.564-12.293 112 112 0 0 0-.44-11.385l1.578-.131c5.346 6.385 10.922 12.443 16.47 18.578l8.529 9.3a33.7 33.7 0 0 1 6.588 10.212 10.2 10.2 0 0 0 1.313 3.754c.6 1.138 1.159 2.226 1.629 3.372a35.6 35.6 0 0 1 2.023 7.167c.852 4.94 1.246 10.047 1.71 15.1l1.872 26.2-1.016-1.587c-1.127-1.7-2.32-3.337-3.524-4.965q-3.626-4.872-7.472-9.557c10.529 15.792 14.358 51.923 15.314 59.34s4.89 106 4.89 106l.159 3.125-.366 15.966c.886-10.044 5.22-39.261 7.616-49.027 1.26-4.862 2.706-9.685 5.385-13.919a32 32 0 0 0 3.147-7.046 14.1 14.1 0 0 0 .632-3.931 6.16 6.16 0 0 0-1.258-4.169l-1.46-1.784.029 2.451v.086a4 4 0 0 1-.1 1.272c-.163.347-.089.328-.266.324a3.87 3.87 0 0 1-1.95-1.469 4.6 4.6 0 0 1-.7-1.147 17 17 0 0 1-.451-1.428c-.273-.985-.492-2.008-.7-3.028-.809-4.1-1.394-8.271-1.854-12.443a141 141 0 0 1-.412-25.168 112 112 0 0 1 1.356-12.524c.9-4.109 1.634-8.278 2.378-12.424l4.264-24.937-.025.1a47.2 47.2 0 0 1-3.52 10.345 27.6 27.6 0 0 1-2.77 4.609 17.6 17.6 0 0 1-2.43 2.645c-.166-7-.24-14.007-.118-21 .223-7.481.237-15.1 2.866-22.009s7.284-12.924 11.6-19.044a82.8 82.8 0 0 1 15.008-16.021 2.21 2.21 0 0 1 1.611.9c.34.72.389 1.545.136 2.3a15.6 15.6 0 0 0-.637 3.1 25 25 0 0 0-.006 3.153 65.7 65.7 0 0 0 2.12 12.137l.206.8.82-.2 2.208-.551a18.3 18.3 0 0 0 2.553 4.184 39 39 0 0 0 3.156 3.386 1.41 1.41 0 0 0 1 .878l2.866.5-2.088-1.956c-.063-.058-.121-.125-.183-.185a2.2 2.2 0 0 1 .377-.641q.683-.836 1.515-1.522c.641-.687 1.851.144 2.792 1.287a33 33 0 0 1 4.427 7.985l.15.353.373.141a16.4 16.4 0 0 1 5.924 3.891c2.014 2.017 4.477 2.909 6.8 3.931 2.365.954 4.761 1.788 7.15 2.6 1.179.408 2.419.8 3.5 1.24.385.194.8.318 1.228.368a1.13 1.13 0 0 0 1.158-1.063 2.2 2.2 0 0 0-.122-.788c-.021-.061-.049-.1-.072-.162a26 26 0 0 0 4.253.05 42 42 0 0 1 5.746-.092 9.5 9.5 0 0 1 2.617.608 16.3 16.3 0 0 0 2.973.851 23.6 23.6 0 0 0 6.1.334l2.872-.211-2.576-1.4a12.8 12.8 0 0 1-2.358-1.822 50 50 0 0 1-2.242-2.24 98 98 0 0 1-3.935-4.49 11.3 11.3 0 0 0 .066-5.858 24.2 24.2 0 0 0-2.077-5.6 14.1 14.1 0 0 0-1.97-7.315 26.2 26.2 0 0 0-4.523-5.78 21.8 21.8 0 0 0-.977-5 8 8 0 0 0-.57-1.327 3.7 3.7 0 0 0-1.17-1.2 11.6 11.6 0 0 0-2.534-1.214c-1.674-.609-3.386-1.037-4.9-1.64-1.689-.721-1.669-1.237-.228-1.832l.658-.272-.052-.542a7.57 7.57 0 0 0-3.8-5.556 18.5 18.5 0 0 0-6.177-1.814 87 87 0 0 0-12.356-.893c-2.173-.012-4.339.745-6.105 1.031a1.16 1.16 0 0 1-.564-.012 6 6 0 0 1 .211-.8c.104-.362.13-.742.076-1.115a1.3 1.3 0 0 0-.582-.87 1.75 1.75 0 0 0-.673-.247 5.7 5.7 0 0 0-1.819.086 14.4 14.4 0 0 0-3.108.974 11 11 0 0 0-1.468.777q-.604.393-1.251.71c-.727.354-1.5.661-2.272.959a105 105 0 0 1 3.231-2.885 178 178 0 0 1 5.85-4.717 14.6 14.6 0 0 0 4.386.475 66 66 0 0 0 4.7-.238c3.109-.258 6.194-.637 9.268-1.072s6.139-.935 9.2-1.507a33 33 0 0 0 4.677-1.1 5.35 5.35 0 0 0 3.195-3.543 43 43 0 0 0 4.926-2.112 15.6 15.6 0 0 0 2.53-1.587 7 7 0 0 0 1.161-1.116c.331-.39.549-.862.632-1.367 3.634-2.675 7.309-5.317 11.041-7.843a45 45 0 0 0 5.786-4.163 10.7 10.7 0 0 0 3.528-6.628l.023-.261-.2-.261-1.243-1.6a48 48 0 0 0 3.763-4.636 9.8 9.8 0 0 0 1.593-3.2 6.45 6.45 0 0 0 0-3.173 11.3 11.3 0 0 0 2.17-3 33 33 0 0 0 1.64-3.716 66 66 0 0 0 2.313-7.68l.27-1.13-1.168.095-.71.058a22.2 22.2 0 0 0 2.624-6.344c.705-2.823.841-5.758.4-8.634l-.095-.6-.644-.072-1.37-.151c.026-2.245.09-4.5.229-6.745a56 56 0 0 1 .84-7.351 16.4 16.4 0 0 1 3.563-6.151 39 39 0 0 1 5.3-5.122l1.5-1.206zm-146.654-9.239a20 20 0 0 1 1.017 2.336c-.321-.786-.62-1.583-1.017-2.336M333.435 686.24v-.027l.024-.063c-.009.031-.014.063-.024.09m110.992-76.38 5.485-7.884c3.711-5.218 7.571-10.34 11.687-15.254 8.217-9.853 17.43-18.762 26.419-27.862l-13.139 13.99c-4.39 4.65-8.715 9.359-12.757 14.3-4.057 4.934-7.857 10.073-11.511 15.315l-5.4 7.919c-1.86 2.6-3.3 5.481-5.72 7.715 1.124-3.086 3.192-5.554 4.936-8.239m-12.153-131.009a28 28 0 0 0 2.281-3.99 59 59 0 0 0 3.208-8.645 25 25 0 0 1-2.692 8.9 28.6 28.6 0 0 1-2.471 3.97 13.7 13.7 0 0 1-3.246 3.327l-.011-.017a19.5 19.5 0 0 0 2.931-3.545m-9.8 51.463c-2.265-2.937-4.273-6.038-6.255-9.156-1.958-3.135-3.886-6.287-5.646-9.553 2.214 2.967 4.257 6.046 6.273 9.144 1.99 3.114 3.955 6.244 5.662 9.541zm.392-137.437q-.256 7.17-.652 14.329l-1.848 28.618c-.611 9.537-1.115 19.079-1.356 28.631-.321 9.552-.07 19.1-.13 28.664h-.011c-.621-9.547-.423-19.119-.275-28.676.215-9.56.695-19.11 1.281-28.651l1.771-28.618q.383-7.156.612-14.316l.536-14.326c.07 4.781.209 9.565.07 14.345zm.971-19.564-.564 1.985-1.458-1.433a12.7 12.7 0 0 1-2.763-4.751c-.6-1.593-1.08-3.195-1.527-4.8-.84-3.2-1.744-6.376-2.346-9.668a82.6 82.6 0 0 1-1.292-19.759h.008c.536 6.565 1.061 13.122 2.643 19.47.742 3.155 1.817 6.27 2.853 9.376.533 1.538 1.1 3.062 1.75 4.513a21 21 0 0 0 1.092 2.107 27.7 27.7 0 0 0 1.88-14.839l.231-.044a31.2 31.2 0 0 1 1.074 8.894 35.5 35.5 0 0 1-1.583 8.949zm3.612-45.677V339.3c.121 3.898-.007 7.8-.382 11.682h-.063a64 64 0 0 1-.906-11.673l.115-11.7c.166-7.794.51-15.581.927-23.36l.669-11.678a44.5 44.5 0 0 1 2.715-11.421 53 53 0 0 0 2.654-11.271 14.44 14.44 0 0 0-2.738-10.844 8.54 8.54 0 0 1 3.037 5 18.8 18.8 0 0 1 .337 5.9 53.7 53.7 0 0 1-2.569 11.447 43.6 43.6 0 0 0-2.564 11.265c-.255 3.851-.357 7.77-.548 11.65l-.686 23.34zm-5.056 296.943a63 63 0 0 1-2.478-11.936c.973 3.945 1.944 7.869 3.184 11.714a73 73 0 0 0 4.442 11.261 39.2 39.2 0 0 1-5.15-11.038zm-17.784-53.894a14.2 14.2 0 0 1-.524 3.178q.368-1.57.521-3.177zm13.031 113.739c-1.472-1.022-2.869-2.126-4.235-3.26-2.723-2.281-5.25-4.752-7.718-7.269-4.931-5.042-9.515-10.38-14.071-15.708l-6.075-7.1a76 76 0 0 0-14.457 9.767 99.3 99.3 0 0 0-12.788 13.022 91.1 91.1 0 0 0-17.3 32 51.6 51.6 0 0 1 6.023-17.429 100.3 100.3 0 0 1 10.175-15.468c7.463-9.326 16.47-17.671 27.22-23.219l-20.138-23.531-27.547-31.754-28.376-31.027c10.135 9.7 19.849 19.829 29.3 30.19 9.474 10.345 18.736 20.88 27.946 31.453l23.639 27.43a144.6 144.6 0 0 1 5.354-31.678c3-11.05 6.67-21.875 9.732-32.889-2.787 11.087-6.194 22.014-8.909 33.1-2.692 10.926-4.592 22.086-4.6 33.294l2.243 2.6c4.554 5.325 9.114 10.627 13.988 15.61 2.439 2.486 4.933 4.92 7.585 7.142 2.605 2.372 5.617 3.8 8.081 6.588a9.54 9.54 0 0 1-5.075-1.863zm10.993 78.35c0 3.538-1.144 6.2-.571 11.058-2.055-12.687-2.828-15.666-6.8-27.888 0 0-.892-2.933-1.272-4.5l2.925 6.169c.489 1.021.99 2.037 1.516 3.027.428.935.97 1.813 1.614 2.614.358.253.764.43 1.193.522a.4.4 0 0 0 .153.009 1 1 0 0 0 .1-.27c.038-.171.038-.385.063-.573.39.382.698.839.906 1.344q.1.252.17.513zm2.75-118.307c-.533 8.388-1.133 16.775-2.092 25.127-.533 4.17-.753 8.349-1.484 12.528a29.2 29.2 0 0 1-1.706 6.113c-.788 1.93-2.147 3.876-4.236 4.513l-.034-.111c2-.722 3.2-2.634 3.883-4.557a28.7 28.7 0 0 0 1.387-6.069c.559-4.122.715-8.349 1.124-12.521l1.788-25.1c.466-8.375.832-16.754 1.016-25.141l.353-25.18q.788 12.578.77 25.2c-.064 8.4-.269 16.808-.771 25.2zm-.693-56.035a6.23 6.23 0 0 1-2.248-2.825 27 27 0 0 1-1.777-6.849c-.37-2.312-.594-4.622-1.1-6.876a40.6 40.6 0 0 0-1.92-6.684l.026-.012a26 26 0 0 1 2.668 6.515 62 62 0 0 1 1.242 6.922 32.7 32.7 0 0 0 1.5 6.728 6 6 0 0 0 1.849 2.729c.812.843 2.249.047 2.472-1.106-.018 1.139-1.553 2.345-2.715 1.459zm3.5-49.672a15.7 15.7 0 0 1 0-3.318 1.32 1.32 0 0 1 .683-.825 1.25 1.25 0 0 1 1.1-.156c.271.153.504.365.684.619a.73.73 0 0 0 .489.171c.851.035 1.606-.9 2.336-1.606a18.7 18.7 0 0 0 1.924-2.492 56 56 0 0 0 3.063-5.584h.009a37 37 0 0 1-2.7 5.814 19 19 0 0 1-1.869 2.64 12 12 0 0 1-1.136 1.176 2.4 2.4 0 0 1-1.629.756 1.44 1.44 0 0 1-.99-.333c-.244-.26-.373-.409-.486-.449-.032-.034-.186.015-.4.145a.54.54 0 0 0-.321.356 29 29 0 0 0-.119 3.057c.027 2.069.137 4.3 1.458 6.027-1.498-1.577-1.896-3.887-2.094-5.996zm8.134 224.191a26 26 0 0 0 1.469-2.222c.93-1.521 1.794-3.1 2.634-4.7a25.4 25.4 0 0 1-2 5.064 26 26 0 0 1-1.434 2.343 4.16 4.16 0 0 1-2.1 1.8 9 9 0 0 1 1.431-2.29zm73.846-140.167-26.419 34.59c-7.138 8.923-14.513 17.67-22.346 26.013a31.4 31.4 0 0 1 7.3-.165 29 29 0 0 1 4.427.736 22 22 0 0 1 4.181 1.692c2.674 1.376 5.03 3.1 7.48 4.68a55 55 0 0 1 6.93 5.472c8.663 7.927 15.306 17.763 24.931 24.514a76 76 0 0 1-13.272-11.4c-4.059-4.2-7.953-8.555-12.32-12.373a54 54 0 0 0-6.907-5.218c-2.488-1.524-4.907-3.192-7.461-4.424a22.4 22.4 0 0 0-8.132-2.275 35.3 35.3 0 0 0-8.22-.131l-5.374 5.575a77 77 0 0 0-7.191 8.055c-2.289 2.816-4.633 5.585-6.742 8.48a34 34 0 0 0-5.007 9.352c-1.167 3.352-1.978 6.84-3.109 10.332l-.176-.026a33.1 33.1 0 0 1 7.082-20.55c2.188-2.949 4.558-5.7 6.867-8.489.7-.866 1.451-1.722 2.187-2.584l-.125-.006c.512-8.353.98-16.706 1.067-25.067.1-8.362-.253-16.732-.77-25.09.8 8.335 1.439 16.7 1.62 25.084.18 7.741.025 15.482-.179 23.213 1.144-1.265 2.32-2.5 3.552-3.653a386 386 0 0 0 28.9-32.4c18.171-22.576 34.9-46.362 53.975-68.247-9.316 11.122-18.093 22.672-26.75 34.305z"/></defs></svg>